<mxfile host="app.diagrams.net" agent="Mozilla/5.0 (Windows NT 10.0; Win64; x64) AppleWebKit/537.36 (KHTML, like Gecko) Chrome/129.0.0.0 Safari/537.36" version="24.7.16">
  <diagram name="Page-1" id="0jGm_4_jH5ckf6Hsy2xG">
    <mxGraphModel dx="1859" dy="796" grid="1" gridSize="10" guides="1" tooltips="1" connect="1" arrows="1" fold="1" page="1" pageScale="1" pageWidth="850" pageHeight="1100" math="0" shadow="0">
      <root>
        <mxCell id="0" />
        <mxCell id="1" parent="0" />
        <mxCell id="qiCdCzOtStQ2J8jEz5Vx-1" value="" style="group" vertex="1" connectable="0" parent="1">
          <mxGeometry x="40" y="40" width="1240" height="855" as="geometry" />
        </mxCell>
        <mxCell id="qiCdCzOtStQ2J8jEz5Vx-2" value="servers" style="swimlane;fontStyle=0;childLayout=stackLayout;horizontal=1;startSize=30;horizontalStack=0;resizeParent=1;resizeParentMax=0;resizeLast=0;collapsible=1;marginBottom=0;whiteSpace=wrap;html=1;swimlaneLine=1;" vertex="1" parent="qiCdCzOtStQ2J8jEz5Vx-1">
          <mxGeometry x="140" y="240" width="380" height="160" as="geometry" />
        </mxCell>
        <mxCell id="qiCdCzOtStQ2J8jEz5Vx-3" value="&lt;div&gt;server_id (PK)&lt;span style=&quot;white-space: pre;&quot;&gt;&#x9;&lt;/span&gt;&lt;span style=&quot;white-space: pre;&quot;&gt;&#x9;&lt;/span&gt;&lt;span style=&quot;white-space: pre;&quot;&gt;&#x9;&lt;/span&gt;INT&lt;span style=&quot;white-space: pre;&quot;&gt;&#x9;&lt;/span&gt;&lt;span style=&quot;white-space: pre;&quot;&gt;&#x9;&lt;/span&gt;&lt;span style=&quot;white-space: pre;&quot;&gt;&#x9;&lt;/span&gt;&lt;span style=&quot;white-space: pre;&quot;&gt;&#x9;&lt;span style=&quot;white-space: pre;&quot;&gt;&#x9;&lt;/span&gt;&lt;/span&gt;IDENTITY&lt;br&gt;&lt;/div&gt;" style="text;strokeColor=default;fillColor=none;align=left;verticalAlign=middle;spacingLeft=4;spacingRight=4;overflow=hidden;points=[[0,0.5],[1,0.5]];portConstraint=eastwest;rotatable=0;whiteSpace=wrap;html=1;" vertex="1" parent="qiCdCzOtStQ2J8jEz5Vx-2">
          <mxGeometry y="30" width="380" height="30" as="geometry" />
        </mxCell>
        <mxCell id="qiCdCzOtStQ2J8jEz5Vx-4" value="&lt;div&gt;first_name&lt;span style=&quot;white-space: pre;&quot;&gt;&#x9;&lt;span style=&quot;white-space: pre;&quot;&gt;&#x9;&lt;span style=&quot;white-space: pre;&quot;&gt;&#x9;&lt;/span&gt;&lt;/span&gt;&lt;/span&gt;NVARCHAR(35)&lt;span style=&quot;white-space: pre;&quot;&gt;&#x9;&lt;span style=&quot;white-space: pre;&quot;&gt;&#x9;&lt;/span&gt;&lt;/span&gt;NOT NULL&lt;/div&gt;&lt;div&gt;&lt;br&gt;&lt;/div&gt;&lt;div&gt;last_name&lt;span style=&quot;white-space: pre;&quot;&gt;&#x9;&lt;/span&gt;&lt;span style=&quot;white-space: pre;&quot;&gt;&#x9;&lt;/span&gt;&lt;span style=&quot;white-space: pre;&quot;&gt;&#x9;&lt;/span&gt;NVARCHAR(35)&lt;span style=&quot;white-space: pre;&quot;&gt;&#x9;&lt;/span&gt;&lt;span style=&quot;white-space: pre;&quot;&gt;&#x9;&lt;/span&gt;NOT NULL&lt;br&gt;&lt;/div&gt;&lt;div&gt;&lt;br&gt;&lt;/div&gt;&lt;div&gt;availability&lt;span style=&quot;white-space: pre;&quot;&gt;&#x9;&lt;/span&gt;&lt;span style=&quot;white-space: pre;&quot;&gt;&#x9;&lt;/span&gt;&lt;span style=&quot;white-space: pre;&quot;&gt;&#x9;VARCHAR(10)&lt;/span&gt;&lt;span style=&quot;white-space: pre;&quot;&gt;&#x9;&lt;span style=&quot;white-space: pre;&quot;&gt;&#x9;&lt;/span&gt;NOT &lt;/span&gt;NULL&lt;span style=&quot;white-space: pre;&quot;&gt;&#x9;&lt;/span&gt;&lt;span style=&quot;white-space: pre;&quot;&gt;&#x9;&lt;/span&gt;&lt;br&gt;&lt;/div&gt;" style="text;strokeColor=none;fillColor=none;align=left;verticalAlign=middle;spacingLeft=4;spacingRight=4;overflow=hidden;points=[[0,0.5],[1,0.5]];portConstraint=eastwest;rotatable=0;whiteSpace=wrap;html=1;" vertex="1" parent="qiCdCzOtStQ2J8jEz5Vx-2">
          <mxGeometry y="60" width="380" height="100" as="geometry" />
        </mxCell>
        <mxCell id="qiCdCzOtStQ2J8jEz5Vx-5" value="food_orders" style="swimlane;fontStyle=0;childLayout=stackLayout;horizontal=1;startSize=30;horizontalStack=0;resizeParent=1;resizeParentMax=0;resizeLast=0;collapsible=1;marginBottom=0;whiteSpace=wrap;html=1;swimlaneLine=1;" vertex="1" parent="qiCdCzOtStQ2J8jEz5Vx-1">
          <mxGeometry x="640" y="240" width="380" height="260" as="geometry" />
        </mxCell>
        <mxCell id="qiCdCzOtStQ2J8jEz5Vx-6" value="&lt;div&gt;order_id (PK)&lt;span style=&quot;white-space: pre;&quot;&gt;&#x9;&lt;span style=&quot;white-space: pre;&quot;&gt;&#x9;&lt;/span&gt;&lt;span style=&quot;white-space: pre;&quot;&gt;&#x9;&lt;/span&gt;INT&lt;span style=&quot;white-space: pre;&quot;&gt;&#x9;&lt;/span&gt;&lt;span style=&quot;white-space: pre;&quot;&gt;&#x9;&lt;/span&gt;&lt;span style=&quot;white-space: pre;&quot;&gt;&#x9;&lt;/span&gt;&lt;span style=&quot;white-space: pre;&quot;&gt;&#x9;&lt;/span&gt;&lt;span style=&quot;white-space: pre;&quot;&gt;&#x9;&lt;/span&gt;IDENTITY&lt;/span&gt;&lt;/div&gt;&lt;div&gt;&lt;br&gt;&lt;/div&gt;" style="text;strokeColor=default;fillColor=none;align=left;verticalAlign=middle;spacingLeft=4;spacingRight=4;overflow=hidden;points=[[0,0.5],[1,0.5]];portConstraint=eastwest;rotatable=0;whiteSpace=wrap;html=1;perimeterSpacing=1;" vertex="1" parent="qiCdCzOtStQ2J8jEz5Vx-5">
          <mxGeometry y="30" width="380" height="30" as="geometry" />
        </mxCell>
        <mxCell id="qiCdCzOtStQ2J8jEz5Vx-7" value="&lt;div&gt;server_id (FK)&lt;span style=&quot;white-space: pre;&quot;&gt;&#x9;&lt;/span&gt;&lt;span style=&quot;white-space: pre;&quot;&gt;&#x9;&lt;/span&gt;&lt;span style=&quot;white-space: pre;&quot;&gt;&#x9;&lt;/span&gt;INT&lt;span style=&quot;white-space: pre;&quot;&gt;&#x9;&lt;/span&gt;&lt;span style=&quot;white-space: pre;&quot;&gt;&#x9;&lt;/span&gt;&lt;span style=&quot;white-space: pre;&quot;&gt;&#x9;&lt;/span&gt;&lt;span style=&quot;white-space: pre;&quot;&gt;&#x9;&lt;/span&gt;&lt;span style=&quot;white-space: pre;&quot;&gt;&#x9;&lt;/span&gt;&lt;/div&gt;&lt;div&gt;&lt;div&gt;&lt;br&gt;&lt;/div&gt;table_id (FK)&lt;span style=&quot;white-space: pre;&quot;&gt;&#x9;&lt;/span&gt;&lt;span style=&quot;white-space: pre;&quot;&gt;&#x9;&lt;/span&gt;&lt;span style=&quot;white-space: pre;&quot;&gt;&#x9;&lt;/span&gt;INT&lt;span style=&quot;white-space: pre;&quot;&gt;&#x9;&lt;/span&gt;&lt;span style=&quot;white-space: pre;&quot;&gt;&#x9;&lt;/span&gt;&lt;span style=&quot;white-space: pre;&quot;&gt;&#x9;&lt;/span&gt;&lt;span style=&quot;white-space: pre;&quot;&gt;&#x9;&lt;span style=&quot;white-space: pre;&quot;&gt;&#x9;&lt;/span&gt;&lt;/span&gt;&lt;/div&gt;&lt;div&gt;&lt;br&gt;&lt;/div&gt;&lt;div&gt;date&lt;span style=&quot;white-space: pre;&quot;&gt;&#x9;&lt;/span&gt;&lt;span style=&quot;white-space: pre;&quot;&gt;&#x9;&lt;/span&gt;&lt;span style=&quot;white-space: pre;&quot;&gt;&#x9;&lt;/span&gt;&lt;span style=&quot;white-space: pre;&quot;&gt;&#x9;&lt;/span&gt;&lt;span style=&quot;white-space: pre;&quot;&gt;&#x9;&lt;/span&gt;DATE&lt;span style=&quot;white-space: pre;&quot;&gt;&#x9;&lt;/span&gt;&lt;span style=&quot;white-space: pre;&quot;&gt;&#x9;&lt;/span&gt;&lt;span style=&quot;white-space: pre;&quot;&gt;&#x9;&lt;span style=&quot;white-space: pre;&quot;&gt;&#x9;&lt;/span&gt;&lt;/span&gt;NOT NULL&lt;br&gt;&lt;/div&gt;&lt;div&gt;&lt;br&gt;&lt;/div&gt;&lt;div&gt;time_ordered&lt;span style=&quot;white-space: pre;&quot;&gt;&#x9;&lt;/span&gt;&lt;span style=&quot;white-space: pre;&quot;&gt;&#x9;&lt;/span&gt;&lt;span style=&quot;white-space: pre;&quot;&gt;&#x9;TIME&lt;span style=&quot;white-space: pre;&quot;&gt;&#x9;&lt;/span&gt;&lt;span style=&quot;white-space: pre;&quot;&gt;&#x9;&lt;/span&gt;&lt;span style=&quot;white-space: pre;&quot;&gt;&#x9;&lt;span style=&quot;white-space: pre;&quot;&gt;&#x9;&lt;/span&gt;&lt;/span&gt;NOT NULL&lt;/span&gt;&lt;br&gt;&lt;/div&gt;&lt;div&gt;&lt;br&gt;&lt;/div&gt;&lt;div&gt;time completed&lt;span style=&quot;white-space: pre;&quot;&gt;&#x9;&lt;/span&gt;&lt;span style=&quot;white-space: pre;&quot;&gt;&#x9;&lt;/span&gt;TIME&lt;span style=&quot;white-space: pre;&quot;&gt;&#x9;&lt;/span&gt;&lt;span style=&quot;white-space: pre;&quot;&gt;&#x9;&lt;/span&gt;&lt;span style=&quot;white-space: pre;&quot;&gt;&#x9;&lt;span style=&quot;white-space: pre;&quot;&gt;&#x9;&lt;/span&gt;&lt;/span&gt;NULL&lt;/div&gt;&lt;div&gt;&lt;br&gt;&lt;/div&gt;&lt;div&gt;status&lt;span style=&quot;white-space: pre;&quot;&gt;&#x9;&lt;/span&gt;&lt;span style=&quot;white-space: pre;&quot;&gt;&#x9;&lt;/span&gt;&lt;span style=&quot;white-space: pre;&quot;&gt;&#x9;&lt;/span&gt;&lt;span style=&quot;white-space: pre;&quot;&gt;&#x9;&lt;/span&gt;VARCHAR(10)&lt;span style=&quot;white-space: pre;&quot;&gt;&#x9;&lt;span style=&quot;white-space: pre;&quot;&gt;&#x9;&lt;/span&gt;&lt;/span&gt;NOT NULL&lt;br&gt;&lt;/div&gt;&lt;div&gt;&lt;br&gt;&lt;/div&gt;&lt;div&gt;special_instructions&lt;span style=&quot;white-space: pre;&quot;&gt;&#x9;&lt;/span&gt;&lt;span style=&quot;white-space: pre;&quot;&gt;&#x9;&lt;/span&gt;VARCHAR(100)&lt;span style=&quot;white-space: pre;&quot;&gt;&#x9;&lt;span style=&quot;white-space: pre;&quot;&gt;&#x9;&lt;/span&gt;&lt;/span&gt;NULL&lt;br&gt;&lt;/div&gt;&lt;div&gt;&lt;br&gt;&lt;/div&gt;&lt;div&gt;&lt;br&gt;&lt;/div&gt;" style="text;strokeColor=none;fillColor=none;align=left;verticalAlign=middle;spacingLeft=4;spacingRight=4;overflow=hidden;points=[[0,0.5],[1,0.5]];portConstraint=eastwest;rotatable=0;whiteSpace=wrap;html=1;" vertex="1" parent="qiCdCzOtStQ2J8jEz5Vx-5">
          <mxGeometry y="60" width="380" height="200" as="geometry" />
        </mxCell>
        <mxCell id="qiCdCzOtStQ2J8jEz5Vx-8" value="menu_items" style="swimlane;fontStyle=0;childLayout=stackLayout;horizontal=1;startSize=30;horizontalStack=0;resizeParent=1;resizeParentMax=0;resizeLast=0;collapsible=1;marginBottom=0;whiteSpace=wrap;html=1;swimlaneLine=1;" vertex="1" parent="qiCdCzOtStQ2J8jEz5Vx-1">
          <mxGeometry x="145" y="590" width="375" height="120" as="geometry" />
        </mxCell>
        <mxCell id="qiCdCzOtStQ2J8jEz5Vx-9" value="&lt;div&gt;item_id (PK)&lt;span style=&quot;white-space: pre;&quot;&gt;&#x9;&lt;/span&gt;&lt;span style=&quot;white-space: pre;&quot;&gt;&#x9;&lt;span style=&quot;white-space: pre;&quot;&gt;&#x9;&lt;/span&gt;INT&lt;span style=&quot;white-space: pre;&quot;&gt;&#x9;&lt;/span&gt;&lt;span style=&quot;white-space: pre;&quot;&gt;&#x9;&lt;/span&gt;&lt;/span&gt;&lt;span style=&quot;white-space: pre;&quot;&gt;&#x9;&lt;/span&gt;&lt;span style=&quot;white-space: pre;&quot;&gt;&#x9;&lt;/span&gt;&lt;span style=&quot;white-space: pre;&quot;&gt;&#x9;&lt;/span&gt;IDENTITY&lt;br&gt;&lt;/div&gt;&lt;span style=&quot;white-space: pre;&quot;&gt;&lt;/span&gt;" style="text;strokeColor=default;fillColor=none;align=left;verticalAlign=middle;spacingLeft=4;spacingRight=4;overflow=hidden;points=[[0,0.5],[1,0.5]];portConstraint=eastwest;rotatable=0;whiteSpace=wrap;html=1;" vertex="1" parent="qiCdCzOtStQ2J8jEz5Vx-8">
          <mxGeometry y="30" width="375" height="30" as="geometry" />
        </mxCell>
        <mxCell id="qiCdCzOtStQ2J8jEz5Vx-10" value="&lt;div&gt;item_name&lt;span style=&quot;white-space: pre;&quot;&gt;&#x9;&lt;/span&gt;&lt;span style=&quot;white-space: pre;&quot;&gt;&#x9;&lt;/span&gt;&lt;span style=&quot;white-space: pre;&quot;&gt;&#x9;&lt;/span&gt;VARCHAR(16)&lt;span style=&quot;white-space: pre;&quot;&gt;&#x9;&lt;/span&gt;&lt;span style=&quot;white-space: pre;&quot;&gt;&#x9;&lt;/span&gt;NOT NULL&lt;br&gt;&lt;/div&gt;&lt;div&gt;&lt;br&gt;&lt;/div&gt;&lt;div&gt;unit_price&lt;span style=&quot;white-space: pre;&quot;&gt;&#x9;&lt;/span&gt;&lt;span style=&quot;white-space: pre;&quot;&gt;&#x9;&lt;/span&gt;&lt;span style=&quot;white-space: pre;&quot;&gt;&#x9;&lt;/span&gt;&lt;span style=&quot;white-space: pre;&quot;&gt;DECIMAL(5,2)&lt;span style=&quot;white-space: pre;&quot;&gt;&#x9;&lt;span style=&quot;white-space: pre;&quot;&gt;&#x9;&lt;span style=&quot;white-space: pre;&quot;&gt;&#x9;&lt;/span&gt;&lt;/span&gt;&lt;/span&gt;NOT NULL&lt;/span&gt;&lt;/div&gt;" style="text;strokeColor=none;fillColor=none;align=left;verticalAlign=middle;spacingLeft=4;spacingRight=4;overflow=hidden;points=[[0,0.5],[1,0.5]];portConstraint=eastwest;rotatable=0;whiteSpace=wrap;html=1;" vertex="1" parent="qiCdCzOtStQ2J8jEz5Vx-8">
          <mxGeometry y="60" width="375" height="60" as="geometry" />
        </mxCell>
        <mxCell id="qiCdCzOtStQ2J8jEz5Vx-11" value="order_details" style="swimlane;fontStyle=0;childLayout=stackLayout;horizontal=1;startSize=30;horizontalStack=0;resizeParent=1;resizeParentMax=0;resizeLast=0;collapsible=1;marginBottom=0;whiteSpace=wrap;html=1;swimlaneLine=1;" vertex="1" parent="qiCdCzOtStQ2J8jEz5Vx-1">
          <mxGeometry x="640" y="590" width="380" height="150" as="geometry" />
        </mxCell>
        <mxCell id="qiCdCzOtStQ2J8jEz5Vx-12" value="&lt;div&gt;&lt;div&gt;order_id (FK)&lt;span style=&quot;white-space: pre;&quot;&gt;&#x9;&lt;span style=&quot;white-space: pre;&quot;&gt;&#x9;&lt;/span&gt;&lt;span style=&quot;white-space: pre;&quot;&gt;&#x9;&lt;span style=&quot;white-space: pre;&quot;&gt;&#x9;&lt;/span&gt;&lt;/span&gt;INT&lt;span style=&quot;white-space: pre;&quot;&gt;&#x9;&lt;/span&gt;&lt;span style=&quot;white-space: pre;&quot;&gt;&#x9;&lt;/span&gt;&lt;span style=&quot;white-space: pre;&quot;&gt;&#x9;&lt;/span&gt;&lt;span style=&quot;white-space: pre;&quot;&gt;&#x9;&lt;span style=&quot;white-space: pre;&quot;&gt;&#x9;&lt;/span&gt;&lt;/span&gt;&lt;/span&gt;&lt;/div&gt;&lt;div&gt;&lt;br&gt;&lt;/div&gt;&lt;div&gt;item_id (FK)&lt;span style=&quot;white-space: pre;&quot;&gt;&#x9;&lt;/span&gt;&lt;span style=&quot;white-space: pre;&quot;&gt;&#x9;&lt;/span&gt;&lt;span style=&quot;white-space: pre;&quot;&gt;&#x9;&lt;/span&gt;&lt;span style=&quot;white-space: pre;&quot;&gt;&#x9;&lt;/span&gt;INT&lt;span style=&quot;white-space: pre;&quot;&gt;&#x9;&lt;/span&gt;&lt;span style=&quot;white-space: pre;&quot;&gt;&#x9;&lt;/span&gt;&lt;span style=&quot;white-space: pre;&quot;&gt;&#x9;&lt;/span&gt;&lt;span style=&quot;white-space: pre;&quot;&gt;&#x9;&lt;span style=&quot;white-space: pre;&quot;&gt;&#x9;&lt;/span&gt;&lt;/span&gt;&lt;br&gt;&lt;/div&gt;&lt;/div&gt;" style="text;strokeColor=default;fillColor=none;align=left;verticalAlign=middle;spacingLeft=4;spacingRight=4;overflow=hidden;points=[[0,0.5],[1,0.5]];portConstraint=eastwest;rotatable=0;whiteSpace=wrap;html=1;" vertex="1" parent="qiCdCzOtStQ2J8jEz5Vx-11">
          <mxGeometry y="30" width="380" height="60" as="geometry" />
        </mxCell>
        <mxCell id="qiCdCzOtStQ2J8jEz5Vx-13" value="&lt;div&gt;quantity&lt;span style=&quot;white-space: pre;&quot;&gt;&#x9;&lt;/span&gt;&lt;span style=&quot;white-space: pre;&quot;&gt;&#x9;&lt;/span&gt;&lt;span style=&quot;white-space: pre;&quot;&gt;&#x9;&lt;/span&gt;&lt;span style=&quot;white-space: pre;&quot;&gt;&#x9;&lt;/span&gt;&lt;span style=&quot;white-space: pre;&quot;&gt;&#x9;TINYINT&lt;/span&gt;&lt;span style=&quot;white-space: pre;&quot;&gt;&#x9;&lt;/span&gt;&lt;span style=&quot;white-space: pre;&quot;&gt;&#x9;&lt;/span&gt;&lt;span style=&quot;white-space: pre;&quot;&gt;&#x9;&lt;/span&gt;NOT NULL&lt;/div&gt;&lt;div&gt;&lt;br&gt;&lt;/div&gt;&lt;div&gt;total_price&lt;span style=&quot;white-space: pre;&quot;&gt;&#x9;&lt;/span&gt;&lt;span style=&quot;white-space: pre;&quot;&gt;&#x9;&lt;/span&gt;&lt;span style=&quot;white-space: pre;&quot;&gt;&#x9;&lt;/span&gt;&lt;span style=&quot;white-space: pre;&quot;&gt;&#x9;&lt;/span&gt;DECIMAL(6,2)&lt;span style=&quot;white-space: pre;&quot;&gt;&#x9;&lt;span style=&quot;white-space: pre;&quot;&gt;&#x9;&lt;/span&gt;&lt;/span&gt;NOT NULL&lt;br&gt;&lt;/div&gt;" style="text;strokeColor=none;fillColor=none;align=left;verticalAlign=middle;spacingLeft=4;spacingRight=4;overflow=hidden;points=[[0,0.5],[1,0.5]];portConstraint=eastwest;rotatable=0;whiteSpace=wrap;html=1;" vertex="1" parent="qiCdCzOtStQ2J8jEz5Vx-11">
          <mxGeometry y="90" width="380" height="60" as="geometry" />
        </mxCell>
        <mxCell id="qiCdCzOtStQ2J8jEz5Vx-14" value="" style="fontSize=12;html=1;endArrow=ERoneToMany;rounded=0;exitX=1;exitY=0.5;exitDx=0;exitDy=0;entryX=-0.012;entryY=0.117;entryDx=0;entryDy=0;entryPerimeter=0;strokeWidth=2;" edge="1" parent="qiCdCzOtStQ2J8jEz5Vx-1" source="qiCdCzOtStQ2J8jEz5Vx-2" target="qiCdCzOtStQ2J8jEz5Vx-7">
          <mxGeometry width="100" height="100" relative="1" as="geometry">
            <mxPoint x="438" y="360" as="sourcePoint" />
            <mxPoint x="538" y="260" as="targetPoint" />
          </mxGeometry>
        </mxCell>
        <mxCell id="qiCdCzOtStQ2J8jEz5Vx-15" value="" style="fontSize=12;html=1;endArrow=ERoneToMany;rounded=0;exitX=1.009;exitY=0.233;exitDx=0;exitDy=0;strokeWidth=2;exitPerimeter=0;entryX=-0.008;entryY=0.733;entryDx=0;entryDy=0;entryPerimeter=0;" edge="1" parent="qiCdCzOtStQ2J8jEz5Vx-1" source="qiCdCzOtStQ2J8jEz5Vx-10" target="qiCdCzOtStQ2J8jEz5Vx-12">
          <mxGeometry width="100" height="100" relative="1" as="geometry">
            <mxPoint x="448" y="560" as="sourcePoint" />
            <mxPoint x="640" y="715" as="targetPoint" />
          </mxGeometry>
        </mxCell>
        <mxCell id="qiCdCzOtStQ2J8jEz5Vx-16" value="" style="fontSize=12;html=1;endArrow=ERoneToMany;rounded=0;exitX=0.5;exitY=1;exitDx=0;exitDy=0;entryX=0.5;entryY=0;entryDx=0;entryDy=0;strokeWidth=2;" edge="1" parent="qiCdCzOtStQ2J8jEz5Vx-1" source="qiCdCzOtStQ2J8jEz5Vx-5" target="qiCdCzOtStQ2J8jEz5Vx-11">
          <mxGeometry width="100" height="100" relative="1" as="geometry">
            <mxPoint x="773" y="540" as="sourcePoint" />
            <mxPoint x="833" y="540" as="targetPoint" />
          </mxGeometry>
        </mxCell>
        <mxCell id="qiCdCzOtStQ2J8jEz5Vx-18" value="" style="endArrow=none;html=1;rounded=0;exitX=0.25;exitY=0;exitDx=0;exitDy=0;strokeWidth=2;entryX=0.692;entryY=1.05;entryDx=0;entryDy=0;entryPerimeter=0;" edge="1" parent="qiCdCzOtStQ2J8jEz5Vx-1" source="qiCdCzOtStQ2J8jEz5Vx-5" target="qiCdCzOtStQ2J8jEz5Vx-21">
          <mxGeometry width="50" height="50" relative="1" as="geometry">
            <mxPoint x="750" y="215" as="sourcePoint" />
            <mxPoint x="360" y="150" as="targetPoint" />
          </mxGeometry>
        </mxCell>
        <mxCell id="qiCdCzOtStQ2J8jEz5Vx-19" value="tables" style="swimlane;fontStyle=0;childLayout=stackLayout;horizontal=1;startSize=30;horizontalStack=0;resizeParent=1;resizeParentMax=0;resizeLast=0;collapsible=1;marginBottom=0;whiteSpace=wrap;html=1;swimlaneLine=1;" vertex="1" parent="qiCdCzOtStQ2J8jEz5Vx-1">
          <mxGeometry x="400" y="50" width="375" height="100" as="geometry" />
        </mxCell>
        <mxCell id="qiCdCzOtStQ2J8jEz5Vx-20" value="&lt;div&gt;table_id (PK)&lt;span style=&quot;white-space: pre;&quot;&gt;&#x9;&lt;/span&gt;&lt;span style=&quot;white-space: pre;&quot;&gt;&#x9;&lt;span style=&quot;white-space: pre;&quot;&gt;&#x9;&lt;/span&gt;INT&lt;span style=&quot;white-space: pre;&quot;&gt;&#x9;&lt;/span&gt;&lt;span style=&quot;white-space: pre;&quot;&gt;&#x9;&lt;/span&gt;&lt;/span&gt;&lt;span style=&quot;white-space: pre;&quot;&gt;&#x9;&lt;/span&gt;&lt;span style=&quot;white-space: pre;&quot;&gt;&#x9;&lt;span style=&quot;white-space: pre;&quot;&gt;&#x9;&lt;/span&gt;&lt;/span&gt;IDENTITY&lt;br&gt;&lt;/div&gt;&lt;span style=&quot;white-space: pre;&quot;&gt;&lt;/span&gt;" style="text;strokeColor=default;fillColor=none;align=left;verticalAlign=middle;spacingLeft=4;spacingRight=4;overflow=hidden;points=[[0,0.5],[1,0.5]];portConstraint=eastwest;rotatable=0;whiteSpace=wrap;html=1;" vertex="1" parent="qiCdCzOtStQ2J8jEz5Vx-19">
          <mxGeometry y="30" width="375" height="30" as="geometry" />
        </mxCell>
        <mxCell id="qiCdCzOtStQ2J8jEz5Vx-21" value="capacity&lt;span style=&quot;white-space: pre;&quot;&gt;&#x9;&lt;/span&gt;&lt;span style=&quot;white-space: pre;&quot;&gt;&#x9;&lt;/span&gt;&lt;span style=&quot;white-space: pre;&quot;&gt;&#x9;&lt;/span&gt;&lt;span style=&quot;white-space: pre;&quot;&gt;&#x9;&lt;/span&gt;TINYINT&lt;span style=&quot;white-space: pre;&quot;&gt;&#x9;&lt;/span&gt;&lt;span style=&quot;white-space: pre;&quot;&gt;&#x9;&lt;/span&gt;&lt;span style=&quot;white-space: pre;&quot;&gt;&#x9;&lt;span style=&quot;white-space: pre;&quot;&gt;&#x9;&lt;/span&gt;&lt;/span&gt;NOT NULL" style="text;strokeColor=none;fillColor=none;align=left;verticalAlign=middle;spacingLeft=4;spacingRight=4;overflow=hidden;points=[[0,0.5],[1,0.5]];portConstraint=eastwest;rotatable=0;whiteSpace=wrap;html=1;" vertex="1" parent="qiCdCzOtStQ2J8jEz5Vx-19">
          <mxGeometry y="60" width="375" height="40" as="geometry" />
        </mxCell>
        <mxCell id="qiCdCzOtStQ2J8jEz5Vx-22" value="servers" style="swimlane;fontStyle=0;childLayout=stackLayout;horizontal=1;startSize=30;horizontalStack=0;resizeParent=1;resizeParentMax=0;resizeLast=0;collapsible=1;marginBottom=0;whiteSpace=wrap;html=1;swimlaneLine=1;" vertex="1" parent="1">
          <mxGeometry x="1290" y="317.5" width="190" height="140" as="geometry" />
        </mxCell>
        <mxCell id="qiCdCzOtStQ2J8jEz5Vx-23" value="&lt;div&gt;&lt;div&gt;server_id (PK)&lt;span style=&quot;white-space: pre;&quot;&gt;&#x9;&lt;/span&gt;&lt;br&gt;&lt;/div&gt;&lt;br&gt;first_name&lt;span style=&quot;white-space: pre;&quot;&gt;&#x9;&lt;span style=&quot;white-space: pre;&quot;&gt;&#x9;&lt;/span&gt;&lt;/span&gt;&lt;/div&gt;&lt;div&gt;&lt;br&gt;&lt;/div&gt;&lt;div&gt;last_name&lt;span style=&quot;white-space: pre;&quot;&gt;&#x9;&lt;/span&gt;&lt;span style=&quot;white-space: pre;&quot;&gt;&#x9;&lt;/span&gt;&lt;br&gt;&lt;/div&gt;&lt;div&gt;&lt;br&gt;&lt;/div&gt;&lt;div&gt;availability&lt;span style=&quot;white-space: pre;&quot;&gt;&#x9;&lt;/span&gt;&lt;span style=&quot;white-space: pre;&quot;&gt;&#x9;&lt;/span&gt;&lt;span style=&quot;white-space: pre;&quot;&gt;&#x9;&lt;/span&gt;&lt;br&gt;&lt;/div&gt;" style="text;strokeColor=none;fillColor=none;align=left;verticalAlign=middle;spacingLeft=4;spacingRight=4;overflow=hidden;points=[[0,0.5],[1,0.5]];portConstraint=eastwest;rotatable=0;whiteSpace=wrap;html=1;" vertex="1" parent="qiCdCzOtStQ2J8jEz5Vx-22">
          <mxGeometry y="30" width="190" height="110" as="geometry" />
        </mxCell>
        <mxCell id="qiCdCzOtStQ2J8jEz5Vx-24" value="food_orders" style="swimlane;fontStyle=0;childLayout=stackLayout;horizontal=1;startSize=30;horizontalStack=0;resizeParent=1;resizeParentMax=0;resizeLast=0;collapsible=1;marginBottom=0;whiteSpace=wrap;html=1;swimlaneLine=1;" vertex="1" parent="1">
          <mxGeometry x="1650" y="307.5" width="200" height="260" as="geometry" />
        </mxCell>
        <mxCell id="qiCdCzOtStQ2J8jEz5Vx-25" value="&lt;div&gt;&lt;div&gt;order_id (PK)&lt;/div&gt;&lt;div&gt;&lt;br&gt;&lt;/div&gt;&lt;div&gt;server_id (FK)&lt;span style=&quot;white-space: pre;&quot;&gt;&#x9;&lt;/span&gt;&lt;span style=&quot;white-space: pre;&quot;&gt;&#x9;&lt;/span&gt;&lt;span style=&quot;white-space: pre;&quot;&gt;&#x9;&lt;/span&gt;&lt;/div&gt;&lt;/div&gt;&lt;div&gt;&lt;div&gt;&lt;br&gt;&lt;/div&gt;table_id (FK)&lt;span style=&quot;white-space: pre;&quot;&gt;&#x9;&lt;/span&gt;&lt;span style=&quot;white-space: pre;&quot;&gt;&#x9;&lt;/span&gt;&lt;span style=&quot;white-space: pre;&quot;&gt;&lt;span style=&quot;white-space: pre;&quot;&gt;&#x9;&lt;/span&gt;&lt;/span&gt;&lt;/div&gt;&lt;div&gt;&lt;br&gt;&lt;/div&gt;&lt;div&gt;date&lt;span style=&quot;white-space: pre;&quot;&gt;&#x9;&lt;/span&gt;&lt;span style=&quot;white-space: pre;&quot;&gt;&#x9;&lt;/span&gt;&lt;br&gt;&lt;/div&gt;&lt;div&gt;&lt;br&gt;&lt;/div&gt;&lt;div&gt;time_ordered&lt;span style=&quot;white-space: pre;&quot;&gt;&#x9;&lt;/span&gt;&lt;br&gt;&lt;/div&gt;&lt;div&gt;&lt;br&gt;&lt;/div&gt;&lt;div&gt;time completed&lt;span style=&quot;white-space: pre;&quot;&gt;&#x9;&lt;/span&gt;&lt;span style=&quot;white-space: pre;&quot;&gt;&#x9;&lt;/span&gt;&lt;/div&gt;&lt;div&gt;&lt;br&gt;&lt;/div&gt;&lt;div&gt;status&lt;span style=&quot;white-space: pre;&quot;&gt;&#x9;&lt;/span&gt;&lt;span style=&quot;white-space: pre;&quot;&gt;&#x9;&lt;/span&gt;&lt;span style=&quot;white-space: pre;&quot;&gt;&#x9;&lt;/span&gt;&lt;br&gt;&lt;/div&gt;&lt;div&gt;&lt;br&gt;&lt;/div&gt;&lt;div&gt;special_instructions&lt;br&gt;&lt;/div&gt;&lt;div&gt;&lt;br&gt;&lt;/div&gt;&lt;div&gt;&lt;br&gt;&lt;/div&gt;" style="text;strokeColor=none;fillColor=none;align=left;verticalAlign=middle;spacingLeft=4;spacingRight=4;overflow=hidden;points=[[0,0.5],[1,0.5]];portConstraint=eastwest;rotatable=0;whiteSpace=wrap;html=1;" vertex="1" parent="qiCdCzOtStQ2J8jEz5Vx-24">
          <mxGeometry y="30" width="200" height="230" as="geometry" />
        </mxCell>
        <mxCell id="qiCdCzOtStQ2J8jEz5Vx-26" value="menu_items" style="swimlane;fontStyle=0;childLayout=stackLayout;horizontal=1;startSize=30;horizontalStack=0;resizeParent=1;resizeParentMax=0;resizeLast=0;collapsible=1;marginBottom=0;whiteSpace=wrap;html=1;swimlaneLine=1;" vertex="1" parent="1">
          <mxGeometry x="1290" y="577.5" width="190" height="120" as="geometry" />
        </mxCell>
        <mxCell id="qiCdCzOtStQ2J8jEz5Vx-27" value="&lt;div&gt;item_id (PK)&lt;span style=&quot;white-space: pre;&quot;&gt;&#x9;&lt;/span&gt;&lt;span style=&quot;white-space: pre;&quot;&gt;&#x9;&lt;/span&gt;&lt;br&gt;&lt;br&gt;item_name&lt;span style=&quot;white-space: pre;&quot;&gt;&#x9;&lt;/span&gt;&lt;span style=&quot;white-space: pre;&quot;&gt;&#x9;&lt;/span&gt;&lt;br&gt;&lt;/div&gt;&lt;div&gt;&lt;br&gt;&lt;/div&gt;&lt;div&gt;unit_price&lt;span style=&quot;white-space: pre;&quot;&gt;&#x9;&lt;/span&gt;&lt;span style=&quot;white-space: pre;&quot;&gt;&#x9;&lt;/span&gt;&lt;/div&gt;" style="text;strokeColor=none;fillColor=none;align=left;verticalAlign=middle;spacingLeft=4;spacingRight=4;overflow=hidden;points=[[0,0.5],[1,0.5]];portConstraint=eastwest;rotatable=0;whiteSpace=wrap;html=1;" vertex="1" parent="qiCdCzOtStQ2J8jEz5Vx-26">
          <mxGeometry y="30" width="190" height="90" as="geometry" />
        </mxCell>
        <mxCell id="qiCdCzOtStQ2J8jEz5Vx-28" value="order_details" style="swimlane;fontStyle=0;childLayout=stackLayout;horizontal=1;startSize=30;horizontalStack=0;resizeParent=1;resizeParentMax=0;resizeLast=0;collapsible=1;marginBottom=0;whiteSpace=wrap;html=1;swimlaneLine=1;" vertex="1" parent="1">
          <mxGeometry x="1640" y="637.5" width="200" height="150" as="geometry" />
        </mxCell>
        <mxCell id="qiCdCzOtStQ2J8jEz5Vx-29" value="&lt;div&gt;&lt;div&gt;order_id (FK)&lt;span style=&quot;white-space: pre;&quot;&gt;&lt;span style=&quot;white-space: pre;&quot;&gt;&#x9;&lt;/span&gt;&lt;span style=&quot;white-space: pre;&quot;&gt;&#x9;&lt;span style=&quot;white-space: pre;&quot;&gt;&#x9;&lt;/span&gt;&lt;/span&gt;&lt;/span&gt;&lt;/div&gt;&lt;div&gt;&lt;br&gt;&lt;/div&gt;item_id (FK)&lt;span style=&quot;white-space: pre;&quot;&gt;&#x9;&lt;/span&gt;&lt;span style=&quot;white-space: pre;&quot;&gt;&#x9;&#x9;&lt;/span&gt;&lt;br&gt;&lt;/div&gt;&lt;div&gt;&lt;br&gt;&lt;/div&gt;&lt;div&gt;quantity&lt;span style=&quot;white-space: pre;&quot;&gt;&#x9;&lt;/span&gt;&lt;span style=&quot;white-space: pre;&quot;&gt;&#x9;&lt;/span&gt;&lt;/div&gt;&lt;div&gt;&lt;br&gt;&lt;/div&gt;&lt;div&gt;total_price&lt;span style=&quot;white-space: pre;&quot;&gt;&#x9;&lt;/span&gt;&lt;br&gt;&lt;/div&gt;" style="text;strokeColor=none;fillColor=none;align=left;verticalAlign=middle;spacingLeft=4;spacingRight=4;overflow=hidden;points=[[0,0.5],[1,0.5]];portConstraint=eastwest;rotatable=0;whiteSpace=wrap;html=1;" vertex="1" parent="qiCdCzOtStQ2J8jEz5Vx-28">
          <mxGeometry y="30" width="200" height="120" as="geometry" />
        </mxCell>
        <mxCell id="qiCdCzOtStQ2J8jEz5Vx-30" value="" style="fontSize=12;html=1;endArrow=ERoneToMany;rounded=0;exitX=1;exitY=0.5;exitDx=0;exitDy=0;entryX=-0.01;entryY=0.217;entryDx=0;entryDy=0;entryPerimeter=0;strokeWidth=2;" edge="1" parent="1" source="qiCdCzOtStQ2J8jEz5Vx-22" target="qiCdCzOtStQ2J8jEz5Vx-25">
          <mxGeometry width="100" height="100" relative="1" as="geometry">
            <mxPoint x="1398" y="427.5" as="sourcePoint" />
            <mxPoint x="1498" y="327.5" as="targetPoint" />
          </mxGeometry>
        </mxCell>
        <mxCell id="qiCdCzOtStQ2J8jEz5Vx-31" value="" style="fontSize=12;html=1;endArrow=ERoneToMany;rounded=0;exitX=1;exitY=0.5;exitDx=0;exitDy=0;strokeWidth=2;entryX=-0.02;entryY=0.128;entryDx=0;entryDy=0;entryPerimeter=0;" edge="1" parent="1" source="qiCdCzOtStQ2J8jEz5Vx-27" target="qiCdCzOtStQ2J8jEz5Vx-28">
          <mxGeometry width="100" height="100" relative="1" as="geometry">
            <mxPoint x="1408" y="627.5" as="sourcePoint" />
            <mxPoint x="1586.96" y="731.48" as="targetPoint" />
          </mxGeometry>
        </mxCell>
        <mxCell id="qiCdCzOtStQ2J8jEz5Vx-32" value="" style="fontSize=12;html=1;endArrow=ERoneToMany;rounded=0;exitX=0.445;exitY=1.017;exitDx=0;exitDy=0;entryX=0.5;entryY=0;entryDx=0;entryDy=0;strokeWidth=2;exitPerimeter=0;" edge="1" parent="1" source="qiCdCzOtStQ2J8jEz5Vx-25" target="qiCdCzOtStQ2J8jEz5Vx-28">
          <mxGeometry width="100" height="100" relative="1" as="geometry">
            <mxPoint x="1733" y="607.5" as="sourcePoint" />
            <mxPoint x="1793" y="607.5" as="targetPoint" />
          </mxGeometry>
        </mxCell>
        <mxCell id="qiCdCzOtStQ2J8jEz5Vx-34" value="" style="endArrow=none;html=1;rounded=0;exitX=0.25;exitY=0;exitDx=0;exitDy=0;strokeWidth=2;entryX=0.692;entryY=1.05;entryDx=0;entryDy=0;entryPerimeter=0;" edge="1" parent="1" source="qiCdCzOtStQ2J8jEz5Vx-24">
          <mxGeometry width="50" height="50" relative="1" as="geometry">
            <mxPoint x="1710" y="282.5" as="sourcePoint" />
            <mxPoint x="1619.5" y="219.5" as="targetPoint" />
          </mxGeometry>
        </mxCell>
        <mxCell id="qiCdCzOtStQ2J8jEz5Vx-35" value="tables" style="swimlane;fontStyle=0;childLayout=stackLayout;horizontal=1;startSize=30;horizontalStack=0;resizeParent=1;resizeParentMax=0;resizeLast=0;collapsible=1;marginBottom=0;whiteSpace=wrap;html=1;swimlaneLine=1;" vertex="1" parent="1">
          <mxGeometry x="1450" y="117.5" width="190" height="100" as="geometry" />
        </mxCell>
        <mxCell id="qiCdCzOtStQ2J8jEz5Vx-36" value="&lt;div&gt;table_id (PK)&lt;span style=&quot;white-space: pre;&quot;&gt;&#x9;&lt;/span&gt;&lt;/div&gt;&lt;div&gt;&lt;br&gt;&lt;/div&gt;&lt;div&gt;capacity&lt;span style=&quot;white-space: pre;&quot;&gt;&#x9;&lt;/span&gt;&lt;span style=&quot;white-space: pre;&quot;&gt;&#x9;&lt;/span&gt;&lt;/div&gt;&lt;span style=&quot;white-space: pre;&quot;&gt;&lt;/span&gt;" style="text;strokeColor=default;fillColor=none;align=left;verticalAlign=middle;spacingLeft=4;spacingRight=4;overflow=hidden;points=[[0,0.5],[1,0.5]];portConstraint=eastwest;rotatable=0;whiteSpace=wrap;html=1;" vertex="1" parent="qiCdCzOtStQ2J8jEz5Vx-35">
          <mxGeometry y="30" width="190" height="70" as="geometry" />
        </mxCell>
        <mxCell id="qiCdCzOtStQ2J8jEz5Vx-37" style="edgeStyle=orthogonalEdgeStyle;rounded=0;orthogonalLoop=1;jettySize=auto;html=1;exitX=0.5;exitY=1;exitDx=0;exitDy=0;entryX=0;entryY=0.25;entryDx=0;entryDy=0;endArrow=none;endFill=0;" edge="1" parent="1" source="qiCdCzOtStQ2J8jEz5Vx-38" target="qiCdCzOtStQ2J8jEz5Vx-42">
          <mxGeometry relative="1" as="geometry" />
        </mxCell>
        <mxCell id="qiCdCzOtStQ2J8jEz5Vx-38" value="&lt;u&gt;table_id&lt;/u&gt;" style="ellipse;whiteSpace=wrap;html=1;fontSize=24;" vertex="1" parent="1">
          <mxGeometry x="325" y="970" width="120" height="80" as="geometry" />
        </mxCell>
        <mxCell id="qiCdCzOtStQ2J8jEz5Vx-39" style="edgeStyle=orthogonalEdgeStyle;rounded=0;orthogonalLoop=1;jettySize=auto;html=1;exitX=0.5;exitY=1;exitDx=0;exitDy=0;entryX=0.75;entryY=0;entryDx=0;entryDy=0;endArrow=none;endFill=0;" edge="1" parent="1" source="qiCdCzOtStQ2J8jEz5Vx-40" target="qiCdCzOtStQ2J8jEz5Vx-42">
          <mxGeometry relative="1" as="geometry" />
        </mxCell>
        <mxCell id="qiCdCzOtStQ2J8jEz5Vx-40" value="&lt;div&gt;capacity&lt;/div&gt;" style="ellipse;whiteSpace=wrap;html=1;fontSize=24;" vertex="1" parent="1">
          <mxGeometry x="475" y="910" width="120" height="80" as="geometry" />
        </mxCell>
        <mxCell id="qiCdCzOtStQ2J8jEz5Vx-41" style="edgeStyle=orthogonalEdgeStyle;rounded=0;orthogonalLoop=1;jettySize=auto;html=1;exitX=1;exitY=0.5;exitDx=0;exitDy=0;endArrow=none;endFill=0;entryX=0.5;entryY=0;entryDx=0;entryDy=0;strokeWidth=2;" edge="1" parent="1" source="qiCdCzOtStQ2J8jEz5Vx-42" target="qiCdCzOtStQ2J8jEz5Vx-57">
          <mxGeometry relative="1" as="geometry">
            <mxPoint x="725" y="1300" as="targetPoint" />
          </mxGeometry>
        </mxCell>
        <mxCell id="qiCdCzOtStQ2J8jEz5Vx-42" value="tables" style="rounded=0;whiteSpace=wrap;html=1;fontSize=30;" vertex="1" parent="1">
          <mxGeometry x="465" y="1040" width="170" height="80" as="geometry" />
        </mxCell>
        <mxCell id="qiCdCzOtStQ2J8jEz5Vx-44" style="edgeStyle=orthogonalEdgeStyle;rounded=0;orthogonalLoop=1;jettySize=auto;html=1;exitX=1;exitY=0.5;exitDx=0;exitDy=0;endArrow=ERmany;endFill=0;endSize=30;entryX=-0.012;entryY=0.588;entryDx=0;entryDy=0;entryPerimeter=0;strokeWidth=2;" edge="1" parent="1" source="qiCdCzOtStQ2J8jEz5Vx-45" target="qiCdCzOtStQ2J8jEz5Vx-57">
          <mxGeometry relative="1" as="geometry">
            <mxPoint x="615" y="1400" as="targetPoint" />
          </mxGeometry>
        </mxCell>
        <mxCell id="qiCdCzOtStQ2J8jEz5Vx-45" value="&lt;div&gt;servers&lt;/div&gt;" style="rounded=0;whiteSpace=wrap;html=1;fontSize=30;" vertex="1" parent="1">
          <mxGeometry x="295" y="1260" width="170" height="80" as="geometry" />
        </mxCell>
        <mxCell id="qiCdCzOtStQ2J8jEz5Vx-46" style="edgeStyle=orthogonalEdgeStyle;rounded=0;orthogonalLoop=1;jettySize=auto;html=1;exitX=1;exitY=0.5;exitDx=0;exitDy=0;entryX=0;entryY=0.5;entryDx=0;entryDy=0;endArrow=none;endFill=0;" edge="1" parent="1" source="qiCdCzOtStQ2J8jEz5Vx-47" target="qiCdCzOtStQ2J8jEz5Vx-45">
          <mxGeometry relative="1" as="geometry" />
        </mxCell>
        <mxCell id="qiCdCzOtStQ2J8jEz5Vx-47" value="&lt;u&gt;server_id&lt;/u&gt;" style="ellipse;whiteSpace=wrap;html=1;fontSize=24;" vertex="1" parent="1">
          <mxGeometry x="95" y="1220" width="120" height="80" as="geometry" />
        </mxCell>
        <mxCell id="qiCdCzOtStQ2J8jEz5Vx-48" style="edgeStyle=orthogonalEdgeStyle;rounded=0;orthogonalLoop=1;jettySize=auto;html=1;exitX=0.5;exitY=0;exitDx=0;exitDy=0;entryX=0.25;entryY=1;entryDx=0;entryDy=0;endArrow=none;endFill=0;" edge="1" parent="1" source="qiCdCzOtStQ2J8jEz5Vx-49" target="qiCdCzOtStQ2J8jEz5Vx-45">
          <mxGeometry relative="1" as="geometry">
            <Array as="points">
              <mxPoint x="245" y="1320" />
              <mxPoint x="245" y="1360" />
              <mxPoint x="338" y="1360" />
            </Array>
          </mxGeometry>
        </mxCell>
        <mxCell id="qiCdCzOtStQ2J8jEz5Vx-49" value="&lt;div&gt;first_name&lt;/div&gt;" style="ellipse;whiteSpace=wrap;html=1;fontSize=24;" vertex="1" parent="1">
          <mxGeometry x="75" y="1320" width="120" height="80" as="geometry" />
        </mxCell>
        <mxCell id="qiCdCzOtStQ2J8jEz5Vx-50" style="edgeStyle=orthogonalEdgeStyle;rounded=0;orthogonalLoop=1;jettySize=auto;html=1;exitX=1;exitY=0;exitDx=0;exitDy=0;entryX=0.75;entryY=1;entryDx=0;entryDy=0;endArrow=none;endFill=0;" edge="1" parent="1" source="qiCdCzOtStQ2J8jEz5Vx-51" target="qiCdCzOtStQ2J8jEz5Vx-45">
          <mxGeometry relative="1" as="geometry">
            <Array as="points">
              <mxPoint x="227" y="1380" />
              <mxPoint x="423" y="1380" />
            </Array>
          </mxGeometry>
        </mxCell>
        <mxCell id="qiCdCzOtStQ2J8jEz5Vx-51" value="last_name" style="ellipse;whiteSpace=wrap;html=1;fontSize=24;" vertex="1" parent="1">
          <mxGeometry x="125" y="1430" width="120" height="80" as="geometry" />
        </mxCell>
        <mxCell id="qiCdCzOtStQ2J8jEz5Vx-52" style="edgeStyle=orthogonalEdgeStyle;rounded=0;orthogonalLoop=1;jettySize=auto;html=1;exitX=1;exitY=0;exitDx=0;exitDy=0;entryX=1;entryY=1;entryDx=0;entryDy=0;endArrow=none;endFill=0;" edge="1" parent="1" source="qiCdCzOtStQ2J8jEz5Vx-53" target="qiCdCzOtStQ2J8jEz5Vx-45">
          <mxGeometry relative="1" as="geometry">
            <Array as="points">
              <mxPoint x="357" y="1410" />
              <mxPoint x="465" y="1410" />
            </Array>
          </mxGeometry>
        </mxCell>
        <mxCell id="qiCdCzOtStQ2J8jEz5Vx-53" value="availability" style="ellipse;whiteSpace=wrap;html=1;fontSize=24;" vertex="1" parent="1">
          <mxGeometry x="255" y="1430" width="120" height="80" as="geometry" />
        </mxCell>
        <mxCell id="qiCdCzOtStQ2J8jEz5Vx-54" style="edgeStyle=orthogonalEdgeStyle;rounded=0;orthogonalLoop=1;jettySize=auto;html=1;exitX=1;exitY=0;exitDx=0;exitDy=0;entryX=0;entryY=1;entryDx=0;entryDy=0;endArrow=none;endFill=0;" edge="1" parent="1" source="qiCdCzOtStQ2J8jEz5Vx-56" target="qiCdCzOtStQ2J8jEz5Vx-80">
          <mxGeometry relative="1" as="geometry">
            <Array as="points">
              <mxPoint x="805" y="1620" />
              <mxPoint x="833" y="1620" />
            </Array>
          </mxGeometry>
        </mxCell>
        <mxCell id="qiCdCzOtStQ2J8jEz5Vx-55" style="edgeStyle=orthogonalEdgeStyle;rounded=0;orthogonalLoop=1;jettySize=auto;html=1;exitX=0.5;exitY=0;exitDx=0;exitDy=0;entryX=0.25;entryY=1;entryDx=0;entryDy=0;endArrow=none;endFill=0;startArrow=ERmany;startFill=0;endSize=30;startSize=30;strokeWidth=2;" edge="1" parent="1" source="qiCdCzOtStQ2J8jEz5Vx-56" target="qiCdCzOtStQ2J8jEz5Vx-57">
          <mxGeometry relative="1" as="geometry" />
        </mxCell>
        <mxCell id="qiCdCzOtStQ2J8jEz5Vx-56" value="&lt;div&gt;order_details&lt;/div&gt;" style="rounded=0;whiteSpace=wrap;html=1;fontSize=30;" vertex="1" parent="1">
          <mxGeometry x="635" y="1640" width="170" height="80" as="geometry" />
        </mxCell>
        <mxCell id="qiCdCzOtStQ2J8jEz5Vx-57" value="&lt;div&gt;food_orders&lt;/div&gt;" style="rounded=0;whiteSpace=wrap;html=1;fontSize=30;" vertex="1" parent="1">
          <mxGeometry x="825" y="1260" width="170" height="80" as="geometry" />
        </mxCell>
        <mxCell id="qiCdCzOtStQ2J8jEz5Vx-58" style="edgeStyle=orthogonalEdgeStyle;rounded=0;orthogonalLoop=1;jettySize=auto;html=1;exitX=0.5;exitY=1;exitDx=0;exitDy=0;entryX=0.812;entryY=-0.012;entryDx=0;entryDy=0;endArrow=none;endFill=0;entryPerimeter=0;" edge="1" parent="1" source="qiCdCzOtStQ2J8jEz5Vx-59" target="qiCdCzOtStQ2J8jEz5Vx-57">
          <mxGeometry relative="1" as="geometry" />
        </mxCell>
        <mxCell id="qiCdCzOtStQ2J8jEz5Vx-59" value="time" style="ellipse;whiteSpace=wrap;html=1;fontSize=24;" vertex="1" parent="1">
          <mxGeometry x="945" y="1090" width="120" height="80" as="geometry" />
        </mxCell>
        <mxCell id="qiCdCzOtStQ2J8jEz5Vx-60" style="edgeStyle=orthogonalEdgeStyle;rounded=0;orthogonalLoop=1;jettySize=auto;html=1;exitX=1;exitY=0.5;exitDx=0;exitDy=0;entryX=0;entryY=1;entryDx=0;entryDy=0;endArrow=none;endFill=0;" edge="1" parent="1" source="qiCdCzOtStQ2J8jEz5Vx-61" target="qiCdCzOtStQ2J8jEz5Vx-57">
          <mxGeometry relative="1" as="geometry" />
        </mxCell>
        <mxCell id="qiCdCzOtStQ2J8jEz5Vx-61" value="&lt;u&gt;order_id&lt;/u&gt;" style="ellipse;whiteSpace=wrap;html=1;fontSize=24;" vertex="1" parent="1">
          <mxGeometry x="685" y="1360" width="120" height="80" as="geometry" />
        </mxCell>
        <mxCell id="qiCdCzOtStQ2J8jEz5Vx-62" style="edgeStyle=orthogonalEdgeStyle;rounded=0;orthogonalLoop=1;jettySize=auto;html=1;exitX=1;exitY=0.5;exitDx=0;exitDy=0;entryX=0;entryY=0;entryDx=0;entryDy=0;endArrow=none;endFill=0;" edge="1" parent="1" source="qiCdCzOtStQ2J8jEz5Vx-63" target="qiCdCzOtStQ2J8jEz5Vx-57">
          <mxGeometry relative="1" as="geometry" />
        </mxCell>
        <mxCell id="qiCdCzOtStQ2J8jEz5Vx-63" value="server_id" style="ellipse;whiteSpace=wrap;html=1;fontSize=24;dashed=1;" vertex="1" parent="1">
          <mxGeometry x="645" y="1180" width="120" height="80" as="geometry" />
        </mxCell>
        <mxCell id="qiCdCzOtStQ2J8jEz5Vx-64" style="edgeStyle=orthogonalEdgeStyle;rounded=0;orthogonalLoop=1;jettySize=auto;html=1;exitX=0;exitY=1;exitDx=0;exitDy=0;entryX=1;entryY=0.75;entryDx=0;entryDy=0;endArrow=none;endFill=0;" edge="1" parent="1" source="qiCdCzOtStQ2J8jEz5Vx-65" target="qiCdCzOtStQ2J8jEz5Vx-57">
          <mxGeometry relative="1" as="geometry" />
        </mxCell>
        <mxCell id="qiCdCzOtStQ2J8jEz5Vx-65" value="time_ completed" style="ellipse;whiteSpace=wrap;html=1;fontSize=24;" vertex="1" parent="1">
          <mxGeometry x="1115" y="1240" width="120" height="80" as="geometry" />
        </mxCell>
        <mxCell id="qiCdCzOtStQ2J8jEz5Vx-66" style="edgeStyle=orthogonalEdgeStyle;rounded=0;orthogonalLoop=1;jettySize=auto;html=1;exitX=0;exitY=0.5;exitDx=0;exitDy=0;entryX=0.824;entryY=1.063;entryDx=0;entryDy=0;endArrow=none;endFill=0;startArrow=ERmany;startFill=0;endSize=50;startSize=15;entryPerimeter=0;" edge="1" parent="1" source="qiCdCzOtStQ2J8jEz5Vx-67" target="qiCdCzOtStQ2J8jEz5Vx-57">
          <mxGeometry relative="1" as="geometry" />
        </mxCell>
        <mxCell id="qiCdCzOtStQ2J8jEz5Vx-67" value="&lt;div&gt;special_&lt;/div&gt;&lt;div&gt;instructions&lt;br&gt;&lt;/div&gt;" style="ellipse;whiteSpace=wrap;html=1;fontSize=24;" vertex="1" parent="1">
          <mxGeometry x="945" y="1420" width="120" height="80" as="geometry" />
        </mxCell>
        <mxCell id="qiCdCzOtStQ2J8jEz5Vx-68" style="edgeStyle=orthogonalEdgeStyle;rounded=0;orthogonalLoop=1;jettySize=auto;html=1;exitX=0;exitY=1;exitDx=0;exitDy=0;entryX=1;entryY=0;entryDx=0;entryDy=0;endArrow=none;endFill=0;" edge="1" parent="1" source="qiCdCzOtStQ2J8jEz5Vx-69" target="qiCdCzOtStQ2J8jEz5Vx-57">
          <mxGeometry relative="1" as="geometry">
            <Array as="points">
              <mxPoint x="1025" y="1218" />
              <mxPoint x="1025" y="1260" />
            </Array>
          </mxGeometry>
        </mxCell>
        <mxCell id="qiCdCzOtStQ2J8jEz5Vx-69" value="&lt;div&gt;time_&lt;/div&gt;&lt;div&gt;ordered&lt;/div&gt;" style="ellipse;whiteSpace=wrap;html=1;fontSize=24;" vertex="1" parent="1">
          <mxGeometry x="1075" y="1150" width="120" height="80" as="geometry" />
        </mxCell>
        <mxCell id="qiCdCzOtStQ2J8jEz5Vx-70" style="edgeStyle=orthogonalEdgeStyle;rounded=0;orthogonalLoop=1;jettySize=auto;html=1;exitX=1;exitY=1;exitDx=0;exitDy=0;entryX=0.2;entryY=-0.025;entryDx=0;entryDy=0;endArrow=none;endFill=0;entryPerimeter=0;" edge="1" parent="1" source="qiCdCzOtStQ2J8jEz5Vx-71" target="qiCdCzOtStQ2J8jEz5Vx-57">
          <mxGeometry relative="1" as="geometry">
            <Array as="points">
              <mxPoint x="872" y="1220" />
              <mxPoint x="859" y="1220" />
            </Array>
          </mxGeometry>
        </mxCell>
        <mxCell id="qiCdCzOtStQ2J8jEz5Vx-71" value="table_id" style="ellipse;whiteSpace=wrap;html=1;fontSize=24;dashed=1;" vertex="1" parent="1">
          <mxGeometry x="770" y="1110" width="120" height="80" as="geometry" />
        </mxCell>
        <mxCell id="qiCdCzOtStQ2J8jEz5Vx-72" style="edgeStyle=orthogonalEdgeStyle;rounded=0;orthogonalLoop=1;jettySize=auto;html=1;exitX=0;exitY=0.5;exitDx=0;exitDy=0;entryX=1;entryY=1;entryDx=0;entryDy=0;endArrow=none;endFill=0;" edge="1" parent="1" source="qiCdCzOtStQ2J8jEz5Vx-73" target="qiCdCzOtStQ2J8jEz5Vx-57">
          <mxGeometry relative="1" as="geometry" />
        </mxCell>
        <mxCell id="qiCdCzOtStQ2J8jEz5Vx-73" value="status" style="ellipse;whiteSpace=wrap;html=1;fontSize=24;" vertex="1" parent="1">
          <mxGeometry x="1055" y="1340" width="120" height="80" as="geometry" />
        </mxCell>
        <mxCell id="qiCdCzOtStQ2J8jEz5Vx-74" style="edgeStyle=orthogonalEdgeStyle;rounded=0;orthogonalLoop=1;jettySize=auto;html=1;exitX=0;exitY=0;exitDx=0;exitDy=0;entryX=0.25;entryY=1;entryDx=0;entryDy=0;endArrow=none;endFill=0;" edge="1" parent="1" source="qiCdCzOtStQ2J8jEz5Vx-75" target="qiCdCzOtStQ2J8jEz5Vx-56">
          <mxGeometry relative="1" as="geometry" />
        </mxCell>
        <mxCell id="qiCdCzOtStQ2J8jEz5Vx-75" value="order_id" style="ellipse;whiteSpace=wrap;html=1;fontSize=24;dashed=1;" vertex="1" parent="1">
          <mxGeometry x="635" y="1780" width="120" height="80" as="geometry" />
        </mxCell>
        <mxCell id="qiCdCzOtStQ2J8jEz5Vx-76" style="edgeStyle=orthogonalEdgeStyle;rounded=0;orthogonalLoop=1;jettySize=auto;html=1;exitX=0;exitY=0;exitDx=0;exitDy=0;endArrow=ERmany;endFill=0;startSize=15;endSize=15;" edge="1" parent="1" source="qiCdCzOtStQ2J8jEz5Vx-77">
          <mxGeometry relative="1" as="geometry">
            <mxPoint x="765" y="1722" as="targetPoint" />
          </mxGeometry>
        </mxCell>
        <mxCell id="qiCdCzOtStQ2J8jEz5Vx-77" value="item_id" style="ellipse;whiteSpace=wrap;html=1;fontSize=24;dashed=1;" vertex="1" parent="1">
          <mxGeometry x="830" y="1770" width="120" height="80" as="geometry" />
        </mxCell>
        <mxCell id="qiCdCzOtStQ2J8jEz5Vx-78" style="edgeStyle=orthogonalEdgeStyle;rounded=0;orthogonalLoop=1;jettySize=auto;html=1;entryX=1;entryY=0.5;entryDx=0;entryDy=0;endArrow=none;endFill=0;exitX=0;exitY=0.5;exitDx=0;exitDy=0;" edge="1" parent="1" source="qiCdCzOtStQ2J8jEz5Vx-79" target="qiCdCzOtStQ2J8jEz5Vx-56">
          <mxGeometry relative="1" as="geometry">
            <mxPoint x="885" y="1640" as="sourcePoint" />
          </mxGeometry>
        </mxCell>
        <mxCell id="qiCdCzOtStQ2J8jEz5Vx-79" value="quantity" style="ellipse;whiteSpace=wrap;html=1;fontSize=24;" vertex="1" parent="1">
          <mxGeometry x="875" y="1660" width="120" height="80" as="geometry" />
        </mxCell>
        <mxCell id="qiCdCzOtStQ2J8jEz5Vx-80" value="&lt;div&gt;total_item_&lt;/div&gt;&lt;div&gt;price&lt;br&gt;&lt;/div&gt;" style="ellipse;whiteSpace=wrap;html=1;fontSize=24;" vertex="1" parent="1">
          <mxGeometry x="850" y="1550" width="120" height="80" as="geometry" />
        </mxCell>
        <mxCell id="qiCdCzOtStQ2J8jEz5Vx-81" style="edgeStyle=orthogonalEdgeStyle;rounded=0;orthogonalLoop=1;jettySize=auto;html=1;exitX=1;exitY=0.388;exitDx=0;exitDy=0;endArrow=ERmany;endFill=0;endSize=30;entryX=0;entryY=0.5;entryDx=0;entryDy=0;exitPerimeter=0;strokeWidth=2;" edge="1" parent="1" source="qiCdCzOtStQ2J8jEz5Vx-82" target="qiCdCzOtStQ2J8jEz5Vx-56">
          <mxGeometry relative="1" as="geometry">
            <mxPoint x="645" y="1650" as="targetPoint" />
          </mxGeometry>
        </mxCell>
        <mxCell id="qiCdCzOtStQ2J8jEz5Vx-82" value="&lt;div&gt;menu_items&lt;/div&gt;" style="rounded=0;whiteSpace=wrap;html=1;fontSize=30;" vertex="1" parent="1">
          <mxGeometry x="215" y="1650" width="170" height="80" as="geometry" />
        </mxCell>
        <mxCell id="qiCdCzOtStQ2J8jEz5Vx-83" style="edgeStyle=orthogonalEdgeStyle;rounded=0;orthogonalLoop=1;jettySize=auto;html=1;exitX=0.5;exitY=0;exitDx=0;exitDy=0;entryX=0;entryY=0.5;entryDx=0;entryDy=0;endArrow=none;endFill=0;" edge="1" parent="1" source="qiCdCzOtStQ2J8jEz5Vx-84" target="qiCdCzOtStQ2J8jEz5Vx-82">
          <mxGeometry relative="1" as="geometry" />
        </mxCell>
        <mxCell id="qiCdCzOtStQ2J8jEz5Vx-84" value="unit_price" style="ellipse;whiteSpace=wrap;html=1;fontSize=24;" vertex="1" parent="1">
          <mxGeometry x="40" y="1730" width="120" height="80" as="geometry" />
        </mxCell>
        <mxCell id="qiCdCzOtStQ2J8jEz5Vx-85" style="edgeStyle=orthogonalEdgeStyle;rounded=0;orthogonalLoop=1;jettySize=auto;html=1;exitX=0.5;exitY=0;exitDx=0;exitDy=0;entryX=0.25;entryY=1;entryDx=0;entryDy=0;endArrow=none;endFill=0;" edge="1" parent="1" source="qiCdCzOtStQ2J8jEz5Vx-86" target="qiCdCzOtStQ2J8jEz5Vx-82">
          <mxGeometry relative="1" as="geometry" />
        </mxCell>
        <mxCell id="qiCdCzOtStQ2J8jEz5Vx-86" value="item_name" style="ellipse;whiteSpace=wrap;html=1;fontSize=24;" vertex="1" parent="1">
          <mxGeometry x="175" y="1780" width="120" height="80" as="geometry" />
        </mxCell>
        <mxCell id="qiCdCzOtStQ2J8jEz5Vx-87" style="edgeStyle=orthogonalEdgeStyle;rounded=0;orthogonalLoop=1;jettySize=auto;html=1;exitX=0;exitY=0.5;exitDx=0;exitDy=0;entryX=0.75;entryY=1;entryDx=0;entryDy=0;endArrow=none;endFill=0;" edge="1" parent="1" source="qiCdCzOtStQ2J8jEz5Vx-88" target="qiCdCzOtStQ2J8jEz5Vx-82">
          <mxGeometry relative="1" as="geometry" />
        </mxCell>
        <mxCell id="qiCdCzOtStQ2J8jEz5Vx-88" value="&lt;span&gt;item_id&lt;/span&gt;" style="ellipse;whiteSpace=wrap;html=1;fontSize=24;fontStyle=4" vertex="1" parent="1">
          <mxGeometry x="375" y="1760" width="120" height="80" as="geometry" />
        </mxCell>
      </root>
    </mxGraphModel>
  </diagram>
</mxfile>
